<svg xmlns="http://www.w3.org/2000/svg" width="36" height="46" viewBox="0 0 36 46" fill="none">
    <path d="M18 29.0526C15.8571 29.0526 14.0357 28.3465 12.5357 26.9342C11.0357 25.5219 10.2857 23.807 10.2857 21.7895V7.26316C10.2857 5.24561 11.0357 3.5307 12.5357 2.11842C14.0357 0.70614 15.8571 0 18 0C20.1429 0 21.9643 0.70614 23.4643 2.11842C24.9643 3.5307 25.7143 5.24561 25.7143 7.26316V21.7895C25.7143 23.807 24.9643 25.5219 23.4643 26.9342C21.9643 28.3465 20.1429 29.0526 18 29.0526ZM15.4286 46V38.5553C10.9714 37.9903 7.28571 36.114 4.37143 32.9263C1.45714 29.7386 0 26.0263 0 21.7895H5.14286C5.14286 25.1386 6.39643 27.9934 8.90357 30.3539C11.4107 32.7145 14.4429 33.8947 18 33.8947C21.5571 33.8947 24.5893 32.7145 27.0964 30.3539C29.6036 27.9934 30.8571 25.1386 30.8571 21.7895H36C36 26.0263 34.5429 29.7386 31.6286 32.9263C28.7143 36.114 25.0286 37.9903 20.5714 38.5553V46H15.4286ZM18 24.2105C18.7286 24.2105 19.3393 23.9785 19.8321 23.5145C20.325 23.0504 20.5714 22.4754 20.5714 21.7895V7.26316C20.5714 6.57719 20.325 6.00219 19.8321 5.53816C19.3393 5.07412 18.7286 4.84211 18 4.84211C17.2714 4.84211 16.6607 5.07412 16.1679 5.53816C15.675 6.00219 15.4286 6.57719 15.4286 7.26316V21.7895C15.4286 22.4754 15.675 23.0504 16.1679 23.5145C16.6607 23.9785 17.2714 24.2105 18 24.2105Z" fill="#ffffff"/>
</svg>